<svg width="160" height="160" viewBox="0 0 160 160" fill="none" xmlns="http://www.w3.org/2000/svg">
<g clip-path="url(#clip0_5_80)">
<path d="M11.2699 152.354L30.6103 113.052V107.811V7.62939e-06H137.252C140.181 7.62939e-06 142.554 2.37382 142.554 5.30264C142.554 8.23147 140.181 10.6053 137.252 10.6053H126.94V48.3512C129.153 45.5903 132.548 43.8157 136.363 43.8157C143.03 43.8157 148.437 49.2209 148.437 55.8898C148.437 62.0833 143.77 67.1809 137.764 67.8755C145.02 78.7442 150.514 90.9314 149.034 104.321C148.292 111.039 137.678 111.111 138.429 104.321C139.306 96.3772 137.337 89.1373 134.01 82.3782V104.321C134.01 104.929 133.946 105.521 133.84 106.099C133.374 118.284 136.665 130.164 136.937 142.323C137.091 149.165 126.486 149.149 126.332 142.323C126.222 137.439 125.623 132.605 124.976 127.778C124.559 133.064 124.089 138.348 123.845 143.648C123.532 150.461 112.927 150.487 113.24 143.648C113.793 131.548 115.532 119.5 115.064 107.377C114.746 106.413 114.565 105.388 114.565 104.321V78.8767C111.286 86.03 110.788 94.196 110.146 102.846C109.643 109.623 99.0338 109.673 99.5411 102.846C100.731 86.8519 102.033 71.6846 115.235 60.8C116.209 59.9958 117.264 59.6034 118.3 59.5203C119.458 58.6118 120.822 57.9561 122.316 57.6485C121.897 57.1801 121.635 56.5685 121.635 55.8898V10.6053H94.6203C94.4435 10.8545 94.2579 11.0984 94.0352 11.3211L43.091 62.2636C42.5395 62.8133 41.8961 63.2074 41.2139 63.4655V107.813V113.153L58.8646 152.523C60.0647 155.198 58.8681 158.333 56.1956 159.532C55.4939 159.848 54.7568 160 54.0286 160C52.003 160 50.0693 158.833 49.1873 156.866L41.2121 139.074V154.696C41.2121 157.623 38.8383 159.998 35.9095 159.998C32.9806 159.998 30.6068 157.623 30.6068 154.696V137.068L20.7793 157.036C19.8584 158.911 17.9759 159.998 16.021 159.998C15.2345 159.998 14.4373 159.821 13.6843 159.45C11.056 158.158 9.9778 154.982 11.2699 152.354ZM79.7552 10.6053H41.2156V49.1431L79.7552 10.6053Z" fill="#fff"/>
</g>
<defs>
<clipPath id="clip0_5_80">
<rect width="160" height="160" fill="white" transform="matrix(-1 0 0 1 160 0)"/>
</clipPath>
</defs>
</svg>
