<svg width="320" height="320" viewBox="0 0 320 320" fill="none" xmlns="http://www.w3.org/2000/svg">
<path d="M297.46 297.194L258.779 224.122V214.378V13.9248H45.4966C39.639 13.9248 34.8914 18.3384 34.8914 23.784C34.8914 29.2295 39.639 33.6431 45.4966 33.6431H66.1204V103.824C61.6944 98.6904 54.9035 95.3909 47.2748 95.3909C33.9404 95.3909 23.1266 105.441 23.1266 117.84C23.1266 129.356 32.4592 138.834 44.4715 140.125C29.9599 160.333 18.9729 182.993 21.9317 207.887C23.4165 220.378 44.6447 220.513 43.1423 207.887C41.3889 193.118 45.327 179.657 51.98 167.09V207.887C51.98 209.017 52.1073 210.118 52.3194 211.193C53.2526 233.849 46.6703 255.937 46.1259 278.544C45.8183 291.266 67.0289 291.236 67.3364 278.544C67.5556 269.464 68.754 260.476 70.0479 251.5C70.8821 261.33 71.8225 271.153 72.3103 281.009C72.936 293.675 94.1466 293.724 93.5209 281.009C92.4144 258.51 88.9358 236.11 89.8726 213.569C90.509 211.778 90.8695 209.872 90.8695 207.887V160.579C97.4271 173.879 98.424 189.063 99.7073 205.146C100.715 217.746 121.932 217.838 120.918 205.146C118.539 175.408 115.933 147.207 89.5297 126.97C87.5819 125.474 85.4715 124.745 83.3999 124.59C81.0844 122.901 78.3553 121.682 75.3682 121.11C76.206 120.239 76.7292 119.102 76.7292 117.84V33.6431H130.76C131.113 34.1065 131.484 34.56 131.93 34.9741L233.818 129.691C234.921 130.713 236.208 131.446 237.572 131.926V214.381V224.309L202.271 297.51C199.871 302.482 202.264 308.312 207.609 310.54C209.012 311.129 210.486 311.411 211.943 311.411C215.994 311.411 219.861 309.242 221.625 305.584L237.576 272.504V301.549C237.576 306.991 242.323 311.408 248.181 311.408C254.039 311.408 258.786 306.991 258.786 301.549V268.774L278.441 305.9C280.283 309.387 284.048 311.408 287.958 311.408C289.531 311.408 291.125 311.079 292.631 310.389C297.888 307.987 300.044 302.081 297.46 297.194ZM160.49 33.6431H237.569V105.296L160.49 33.6431Z" fill="#880808"/>
</svg>
